<svg version="1.2" xmlns="http://www.w3.org/2000/svg" viewBox="0 0 723 680" width="723" height="680">
	<title>king-abdullah-university-of-science-kaust-seeklogo-ai</title>
	<style>
		.s0 { fill: #f8c115 } 
		.s1 { fill: #bdce30 } 
		.s2 { fill: #ed8522 } 
		.s3 { fill: #1a9da7 } 
	</style>
	<g id="图层 1">
		<g id="&lt;Group&gt;">
			<g id="#f9c213ff">
				<path id="path5" class="s0" d="m389 26.8h17.3c14.6 1.4 29.1 4.7 42.4 11 21.4 10.1 37.9 28.6 48.9 49.2 11.2 21.2 16.9 44.9 18.9 68.7-32-25.5-73.7-37-114.3-36.1-46.2 1.5-91.9 10.1-136.2 23 10.8-28 25.7-54.6 46.4-76.4 19.7-21.7 47.1-36.9 76.6-39.4z"/>
				<path id="path7" class="s0" d="m362 138.2c25-3.1 50.5-4.6 75.4-0.6 14.4 2.2 28.5 6.6 41.7 12.7 13.7 6.6 25.9 15.9 37.4 25.8-0.3 5.7-1.1 11.4-2.1 17.1-6.3-3.8-11.2-9.3-16.9-13.8-27.7-22.6-63.4-34.4-99.1-35.1-38.9-0.9-77.7 5.7-115.4 15.2-8.6 2.2-17 5.5-25.9 6.9 1.7-2.4 2.7-5.8 5.8-6.7 32.3-10.1 65.5-17.4 99.1-21.5z"/>
				<path id="path9" class="s0" d="m259.1 180.8c33.3-11.1 67.9-18.4 102.9-21.8 20.9-0.9 42-2.2 62.7 1.5 32.8 5.6 63.3 23.2 84.5 48.9q-3.2 7.9-6.3 15.9c-9-9.8-18.2-19.5-29.1-27.3-24.4-17.7-54.1-27.1-84.1-29.2-21-1.7-42.1 0.7-62.9 3.5-25.1 3.5-49.7 10-73.8 17.5-0.6-4.2 2.1-7.9 6.1-9z"/>
				<path id="path11" class="s0" d="m343.2 181.9c31.7-3.9 64.8-2.6 94.7 9.4 22.2 8.9 41.8 23.8 56.7 42.3 2.5 5.9-2 12.5-7.3 15-1.7-1.2-3-2.9-4.4-4.4-22.9-25.5-54.4-43-88.3-48.5-19.9-3.3-40.2-3-60.3-1.6-25.9 2.5-51.7 7.4-76.3 16.2-0.9-2.9-1.8-5.8-2.7-8.7 28.5-9.7 58-16.5 87.9-19.7z"/>
				<path id="path13" class="s0" d="m262.6 218.7c36.5-11.4 74.9-18.1 113.2-15.5 40.9 2.4 81.3 22.1 105.9 55.1q-5.7 5.7-11.3 11.4c-12.4-14.4-27.4-26.5-44.4-35-30.6-15-65.5-19.4-99.2-16.9-19.6 1.4-39 5-58 10q-3.1-4.6-6.2-9.1z"/>
				<path id="path15" class="s0" d="m275.5 234.1c35.1-8.7 72.2-12.7 108-5.6 27.6 5.5 54.4 18 74 38.5 2.3 2.5 5.4 4.9 5.2 8.7-4.3 2.9-8.8 5.5-13.4 7.8-20.5-23.1-51-34.6-81-39.1-14.5-1.9-29.2-3.8-43.9-3.1-12.5 0.4-25 2.2-37.4 4-4-3.5-8.1-7-11.5-11.2z"/>
				<path id="path17" class="s0" d="m294.1 250.3c37.2-5.5 76.1-3.7 111.4 9.9 14 6.1 28.4 13.5 37.7 26.1-25 9.3-52.7 6.2-77.7-1.4-25.4-7.8-49.9-19-71.4-34.6z"/>
			</g>
			<g id="#bece1fff">
				<path id="path20" class="s1" d="m70.9 217.1c29.4-19.2 64.4-31 99.8-29.3-11.1 10.7-23 20.7-31.6 33.5-14.3 20.5-21.1 46-18.7 70.8 3.1 37.5 16.1 73.5 32.7 107.1-34-6.8-66.7-22.1-91.8-46.2-17.3-16.5-29.5-38.9-31.8-62.9v-12.5c2.6-25.6 20.7-46.6 41.4-60.5z"/>
				<path id="path22" class="s1" d="m178.7 201.8c5.3-3.8 10.4-9.1 17.6-8.7-2.7 5.3-8.3 7.6-12.7 11.1-20 15-37.1 35.5-43.2 60.2-4.3 14.9-2.1 30.5-2.3 45.7-2.4-7-2.4-14.5-2.5-21.8-0.2-9.4-0.5-18.9 2.3-28 6.2-23.5 21.8-43.6 40.8-58.5z"/>
				<path id="path24" class="s1" d="m172.4 233c10.6-12.4 24-22 37.9-30.5q2.6 0.7 5.2 1.5c0.2 0.7 0.5 2.1 0.7 2.8-23.5 13.2-45.6 31.6-55.8 57.1-6.9 15.7-6.8 33.4-4.6 50.1 4.2 23.6 12.6 46.3 23.6 67.5 2.8 5.2 5.8 10.3 7.2 16-5.2-4.3-7.5-10.7-10.5-16.5-14.1-28.9-24.6-60.3-25.2-92.7-0.2-20.3 8.1-40.1 21.5-55.3z"/>
				<path id="path26" class="s1" d="m219.8 218c2.1-1.2 5.2-2.5 7.2-0.3 0.7 1.6 1.3 3.4 1.9 5.2-22 10.9-42.2 27.8-52.1 50.7-8.8 20.1-6 43.2 0.3 63.6 4.3 14.1 10.8 27.4 17.7 40.4 1.8 3.5 4.2 6.8 5.5 10.6-5.4 1.1-7.1-4.9-9.1-8.5-14.1-27.5-26.4-57.4-25.1-88.8 0.5-21.1 12.3-40.2 27.6-54.1 7.9-7.3 16.8-13.4 26.1-18.8z"/>
				<path id="path28" class="s1" d="m201.2 254.4c9.3-9.7 20.6-17.3 32.5-23.4q1.6 4.7 3.3 9.4c-17.4 9.7-34 22.8-42.8 41-6.8 13.8-7.3 29.8-4.1 44.5 3.8 17.7 12.3 33.9 21.2 49.4q-2.9 1.1-5.8 2.2c-12.7-23.7-24.8-49.2-24.5-76.7-0.2-17.5 8.1-34.1 20.2-46.4z"/>
				<path id="path30" class="s1" d="m216.9 263.7c6.3-5.9 13.4-10.6 20.8-14.9 1.1 4.4 1.4 8.9 1.4 13.4-17.6 9.5-31.8 26.9-33.4 47.3-2.1 16.3 4.4 32.1 11.9 46.2 2 3.3 1.3 9.3-3.4 9.3-10.7-19.1-19.7-40.6-17.6-63 1-15 9.5-28.4 20.3-38.3z"/>
				<path id="path32" class="s1" d="m213.2 301c3.9-13.9 14.3-24.8 26.1-32.6-1.4 28.4-6.5 56.8-16.8 83.4-9-15-14.6-33.5-9.3-50.8z"/>
			</g>
			<g id="#ee850fff">
				<path id="path35" class="s2" d="m559.4 282.4c2.9 0.1 6.2-0.7 8.9 0.1 5.5 31.2 5.4 63.2 3 94.8-3.2 38.7-12.8 77.6-32.9 111.2q-4.9-1.5-9.8-2.9c3.4-8.3 9-15.4 12.7-23.5 17.8-36.4 23.2-77.4 23.9-117.5 0.8-20.9-2.9-41.6-5.8-62.2z"/>
				<path id="path37" class="s2" d="m583.5 281.2c27.1 2 55.3 8.7 76.5 26.6 16.8 13.6 25.4 35.6 24.7 56.8-0.7 17.6-3.9 35.1-10 51.6-8.5 23.5-23.7 45.3-44.9 59-22.1 14.1-49.2 18.7-75 17.1 4.1-10.7 10.2-20.5 14-31.4 15.1-40.3 19.9-83.6 19.7-126.3 0.2-17.9-2.4-35.7-5-53.4z"/>
				<path id="path39" class="s2" d="m534.2 287.4q5.7-1.3 11.4-2.6c8.1 37.3 7.7 76 1.6 113.5-4.4 28.3-14.4 55.9-30.5 79.7-4.3-1.3-7.9-3.9-11.3-6.7 22.6-28.5 32.5-64.8 35.5-100.5 2.3-27.9 1.3-56.4-6.7-83.4z"/>
				<path id="path41" class="s2" d="m510.9 294.6c4.1-1.6 8.3-3.8 12.8-3.2 9.7 36.4 8.1 74.9 0.7 111.6-5 21.8-13.4 43.4-28 60.8-3.2-3.8-6.4-7.6-9.4-11.5 21.2-25.4 29.8-59 31.2-91.5 1.5-22.2-0.5-44.9-7.3-66.2z"/>
				<path id="path43" class="s2" d="m489.2 304.7c4.3-2.1 8.4-4.5 12.7-6.5 5.8 17.3 7.8 35.7 7.2 53.9-0.3 32.5-7.9 66.1-27.7 92.6-2.8-4.5-7-8.4-8.1-13.7-0.5-2.3 0.6-4.3 1.8-6.1 14.4-21.7 20.6-48.1 20.4-74 0-15.6-2.5-31.1-6.3-46.2z"/>
				<path id="path45" class="s2" d="m468.5 320.7c4.1-4.3 8.7-8.3 13.9-11.2 7.2 27.6 8.1 57.3-0.7 84.6-2.9 8.7-6.5 17.2-11.6 24.7-0.8 0.1-2.3 0.2-3.1 0.2-3-6.9-7.9-14.8-4.2-22.5 11.5-23.5 11.3-50.8 5.7-75.8z"/>
				<path id="path47" class="s2" d="m453.6 349.7c1.3-8.7 4.8-17 10.2-23.8 4.8 22.4 3.8 46.6-5.5 67.8-4-14.3-7-29.2-4.7-44z"/>
			</g>
			<g id="#938982ff">
			</g>
			<g id="#139da7ff">
				<path id="path59" class="s3" d="m261.4 396.6c22-6.7 45-12.3 68.2-10.1 34.7 3 69.9 14.4 95.9 38.3-48 20.3-105.6 13.7-148.7-15-5.6-3.9-12.1-7.1-15.4-13.2z"/>
				<path id="path61" class="s3" d="m244.7 403.4c3.1-1.2 6.3-2.4 9.4-3.7 29.4 25.5 67.4 42.2 106.7 42.3 23.4 0.6 47.5-2.5 68.8-12.7 4.6 4.9 8.8 10.2 12.5 15.9-24.3 13.4-52.8 16.9-80.1 15.4-37.1-0.9-72.6-17.1-100.9-40.4-5.9-5.1-12.4-9.9-16.4-16.8z"/>
				<path id="path63" class="s3" d="m229.1 411.3q3.9-1.8 7.8-3.5c27.7 29.9 64.7 51.8 105.2 58.9 35.1 5.8 72.1 1.2 104.2-14.5q3.4 8.2 6.5 16.4c-30.7 16.5-66.9 20.3-101 15.7-48.6-7.2-91.4-36.3-122.7-73z"/>
				<path id="path65" class="s3" d="m219.3 415.1c5.7 5.4 10.8 11.3 16.1 16.9 29.4 30.4 67.5 53.1 109.4 60.9 12.2 2.5 24.8 2.8 37.3 2.7 25.2-0.4 50.6-5.5 73-17.3q1.7 8.3 2.8 16.7c-33.7 16-72.6 19.6-109 12.7-33.6-6.4-64.4-23.1-90.5-44.7-8.6-7.2-17-14.7-24.4-23.2-5.9-6.4-12.1-12.7-16.5-20.2q0.9-2.3 1.8-4.5z"/>
				<path id="path67" class="s3" d="m204.2 424.4c5.2 3.5 8.6 8.9 12.7 13.5 26.8 31.8 60.9 58.3 100.2 72.8 45.2 16.8 96.7 15.7 141.2-2.8q-0.3 7.8-0.7 15.7c-36.6 13.7-77.5 15.9-115.5 6.2-35.3-9-67.2-28.5-94-52.8-14.7-13.3-28-28.2-40-44-2-2.5-3.1-5.5-3.9-8.6z"/>
				<path id="path69" class="s3" d="m192.5 435.7c4.1 3.3 6.6 7.9 9.9 11.9 26.4 33.9 59.9 63 99 81.4 30.9 14.7 65.4 22.4 99.7 20.4 18.6-1 37-4.6 54.7-10.5q-0.6 6.2-1.1 12.4c-35 11.5-73.3 12-109 3-36.1-9.2-69-28.6-96.9-52.9-21.7-19.2-40.8-41.3-56.3-65.7z"/>
				<path id="path71" class="s3" d="m173.2 454.1c2.3-2.7 5.2-5 8.1-7 24 35.1 53.8 66.6 89.4 89.9 18.6 12.2 38.7 22.1 59.9 29 38.4 12.2 80 12.5 119.1 3.6-6.4 21.5-17.1 42.3-33.7 57.9-14.5 13.8-33.7 22.3-53.4 25.3-19 3-38.6 1.4-57.2-3.3-28.3-6.5-55.8-16.9-81-31.3-25.8-14.6-50.5-33.5-65.5-59.6-10.2-18-15.8-39.8-10.5-60.3 4.1-16.6 13.8-31.3 24.8-44.2z"/>
			</g>
		</g>
	</g>
</svg>