<svg width="36" height="36" xmlns="http://www.w3.org/2000/svg" fill="none">

 <g>
  <title>Layer 1</title>
  <path id="svg_1" fill="#00BBB8" d="m25.1029,24.09305c1.0081,-0.7639 2.3005,-1.3608 3.6025,-1.5845c0.2372,-0.0461 0.4673,-0.077 0.6888,-0.0952c2.3861,-0.0587 4.3029,-2.0092 4.3029,-4.4068c0,-2.3975 -1.9761,-4.4083 -4.4134,-4.4083c-0.0173,0 -0.0345,0 -0.0517,0.0005c-0.0112,0 -0.0218,-0.0005 -0.033,-0.0005c-1.8782,0 -3.3734,0.9082 -4.1194,2.8233c-0.1977,0.606 -0.2301,1.1157 -0.2088,1.6235c0.0015,0.1858 0.0147,0.3685 0.0385,0.5477c0.0466,0.525 0.1084,1.0834 0.0714,1.7739c-0.2437,3.208 -3.6202,5.6172 -6.4716,5.6172c0.0309,0 -0.0334,0 0,0c-0.0765,0 -0.148,0.0005 -0.2235,-0.002c-0.0644,-0.0041 -0.1292,-0.0076 -0.1946,-0.0091c-1.8068,-0.1747 -3.4388,-0.9406 -4.6967,-2.1004c1.1459,-0.9092 2.5964,-1.4524 4.1742,-1.4524c0.0527,0 0.1049,0.0005 0.1571,0.0015c0.0877,0.0051 0.1763,0.0081 0.2655,0.0081c2.4374,0 4.4135,-1.9738 4.4135,-4.4083c0,-0.1984 -0.0132,-0.3933 -0.0386,-0.5847l-0.005,-0.0354c-0.0152,-0.1858 -0.0142,-0.3423 -0.0142,-0.5321c0,-3.6991 2.938,-6.71219 6.6105,-6.83925l0.0334,0c0.0588,0 0.1054,-0.00102 0.1526,-0.00203c0.0476,-0.00101 0.0963,-0.00202 0.1581,-0.00202c2.4373,0 4.4134,-1.97382 4.4134,-4.40831c0,-2.43449 -1.9766,-4.40679 -4.4139,-4.40679c-1.8833,0 -3.491,1.17801 -4.1245,2.83695l-0.001,0l-0.0046,0.01468c-0.0167,0.04455 -0.0329,0.0896 -0.0487,0.13517c-0.2387,0.58014 -0.8104,0.98918 -1.4773,0.98918c-0.667,0 -1.2666,-0.42878 -1.4942,-1.0312c-0.6087,-1.70855 -2.2411,-2.93111 -4.1595,-2.93111c-1.9183,0 -3.4823,1.17194 -4.1194,2.82328l-0.0025,0c-0.0041,0.01367 -0.0087,0.02734 -0.0127,0.041c-0.0112,0.03038 -0.0223,0.06075 -0.033,0.09113c-0.2331,0.58723 -0.8068,1.00235 -1.4774,1.00235c-0.67048,0 -1.27816,-0.44043 -1.49711,-1.055c-0.61731,-1.69336 -2.24218,-2.90276 -4.15037,-2.90276c-2.43732,0 -4.41342,1.97331 -4.41342,4.4078c0,2.43449 1.9761,4.40831 4.41342,4.40831c1.80327,0 3.35365,-1.08031 4.03887,-2.62788l0.00051,0c0.2676,-0.55382 0.8094,-0.95324 1.47485,-0.95324c0.71005,0 1.31165,0.44853 1.51895,1.06867c0.0563,0.16857 0.0436,0.34474 0.0416,0.46472c-0.2438,3.20802 -3.00803,5.61725 -6.37537,5.61725c-0.03345,0 -0.06538,0 -0.09629,0c-0.1115,0.0005 -0.21135,0.001 -0.32944,-0.0071l-0.02433,0c-0.06943,-0.0036 -0.13937,-0.0051 -0.20982,-0.0051c-2.43782,0.001 -4.41342,1.9743 -4.41342,4.4088c0,2.4345 1.97611,4.4083 4.41342,4.4083c0.32132,0 0.63454,-0.0344 0.9361,-0.0992c0.19006,-0.0324 0.4754,-0.0592 0.79825,-0.0375c0.22858,0.0223 0.47337,0.0669 0.72273,0.1468c0.88846,0.3261 1.69177,0.8277 2.36788,1.4631c-1.1662,1.2544 -2.7551,2.0517 -4.62122,2.0912c-0.11505,0 -0.16117,-0.0065 -0.24277,-0.0065c-2.43731,0 -4.41341,1.9738 -4.41341,4.4083c0,2.4345 1.9761,4.4083 4.41341,4.4083c1.82609,0 3.39319,-1.1077 4.06422,-2.6876l0.00101,0c0.24835,-0.6166 0.86312,-1.053 1.58175,-1.053c0.5946,0 1.1166,0.2987 1.4202,0.7502c0.5909,1.739 2.2391,2.9904 4.1797,2.9904c0.0021,0 0.0046,-0.0005 0.0071,-0.0005c0.0127,0 0.0254,0.0005 0.038,0.0005c1.8484,0 3.4312,-1.135 4.0886,-2.7454c0.2625,-0.5857 0.8611,-0.9952 1.5575,-0.9952c0.6963,0 1.3339,0.4364 1.5818,1.053l0.0005,0c0.671,1.5794 2.2381,2.6876 4.0642,2.6876c2.4373,0 4.4134,-1.9738 4.4134,-4.4083c0,-2.4345 -1.9761,-4.4083 -4.4134,-4.4083c-1.9006,0 -3.4312,1.1263 -4.1418,2.8825c-0.2721,0.5416 -0.8423,0.9147 -1.5017,0.9147c-0.6234,0 -1.1662,-0.3341 -1.4536,-0.8282c0.0649,-0.4065 0.1536,-0.8353 0.2707,-1.2888c0.5164,-1.5122 1.3583,-2.6588 2.6456,-3.5599zm4.1808,-8.7376c1.4657,0 2.6542,1.1871 2.6542,2.6511c0,1.4641 -1.1885,2.6512 -2.6542,2.6512c-1.4658,0 -2.6543,-1.1871 -2.6543,-2.6512c0,-1.464 1.1885,-2.6511 2.6543,-2.6511zm-11.2926,-12.37449c1.4658,0 2.6543,1.18712 2.6543,2.65116c0,1.46404 -1.1885,2.65116 -2.6543,2.65116c-1.4657,0 -2.6542,-1.18712 -2.6542,-2.65116c0,-1.46404 1.1885,-2.65116 2.6542,-2.65116zm-11.29248,17.67729c-1.46574,0 -2.65424,-1.1871 -2.65424,-2.6512c0,-1.464 1.1885,-2.6511 2.65424,-2.6511c1.46573,0 2.65423,1.1871 2.65423,2.6511c0,1.4641 -1.1885,2.6512 -2.65423,2.6512zm4.55076,-5.3798c0.51646,-1.5121 1.35832,-2.6587 2.64562,-3.5598c1.0081,-0.76396 2.3005,-1.36081 3.6025,-1.58457c0.2793,-0.05416 0.5499,-0.0891 0.8069,-0.10428c1.71,-0.11998 3.1509,-1.21244 3.7728,-2.72761c0.2265,-0.49661 0.7359,-0.84339 1.3283,-0.84339c0.628,0 1.1632,0.3893 1.3664,0.93452c0.0649,0.21667 0.0436,0.53053 0.0299,0.68291c-0.4602,3.13259 -3.1661,5.53772 -6.4351,5.53772c-0.0563,0 -0.112,-0.0005 -0.1678,-0.002l-0.0192,0c-0.0406,0 -0.07,0.0005 -0.0988,0.001c-0.0274,0.0005 -0.0548,0.001 -0.0892,0.001c-2.4374,0 -4.4135,1.9738 -4.4135,4.4083c0,0.2005 0.0137,0.3979 0.0396,0.5913c0.0071,0.0582 0.0126,0.1139 0.0162,0.1665c0.0035,0.0714 0.0061,0.1428 0.0076,0.2147c0,0.1149 -0.0061,0.2055 -0.0117,0.2642c-0.1525,1.2889 -0.5752,2.4973 -1.2204,3.524c-0.1637,-0.2182 -0.31626,-0.445 -0.45715,-0.6789c-0.87883,-1.3643 -1.58839,-3.3969 -0.70246,-6.8256l-0.00051,0zm2.77742,13.4558c-0.183,0.7441 -1.1809,1.0585 -1.6224,1.0585c-0.44141,0 -1.43934,-0.3149 -1.6218,-1.0585c-0.30308,-1.2327 0.97867,-3.1605 1.6218,-3.9031c0.6432,0.7426 1.9249,2.6704 1.6224,3.9031zm3.9228,4.2969c-1.4465,-0.0223 -2.6127,-1.1998 -2.6127,-2.6501c0,-1.4504 1.1657,-2.6279 2.6122,-2.6502c1.4459,0.0228 2.6116,1.2003 2.6116,2.6502c0,1.4498 -1.1651,2.6268 -2.6111,2.6501z" class="logo-scale"/>
 </g>
</svg>